<svg width="1200" height="680" viewBox="0 0 1200 680" fill="none" xmlns="http://www.w3.org/2000/svg">
  <defs>
    <linearGradient id="bg" x1="0" y1="0" x2="0" y2="1">
      <stop offset="0%" stop-color="#f4f6f8"/>
      <stop offset="100%" stop-color="#eceff3"/>
    </linearGradient>
    <radialGradient id="floorShadow" cx="50%" cy="50%" r="50%">
      <stop offset="0%" stop-color="#c6ccd3" stop-opacity="0.45"/>
      <stop offset="100%" stop-color="#c6ccd3" stop-opacity="0"/>
    </radialGradient>
    <linearGradient id="goldBody" x1="0" y1="0" x2="1" y2="1">
      <stop offset="0%" stop-color="#8f6b0c"/>
      <stop offset="40%" stop-color="#c89a23"/>
      <stop offset="100%" stop-color="#f1c84a"/>
    </linearGradient>
    <linearGradient id="goldCap" x1="0" y1="0" x2="1" y2="1">
      <stop offset="0%" stop-color="#73540a"/>
      <stop offset="100%" stop-color="#d5a62a"/>
    </linearGradient>
    <linearGradient id="grayBody" x1="0" y1="0" x2="1" y2="1">
      <stop offset="0%" stop-color="#7d8289"/>
      <stop offset="35%" stop-color="#a4aab0"/>
      <stop offset="100%" stop-color="#d9dde2"/>
    </linearGradient>
    <linearGradient id="grayCap" x1="0" y1="0" x2="1" y2="1">
      <stop offset="0%" stop-color="#656a72"/>
      <stop offset="100%" stop-color="#aeb4bc"/>
    </linearGradient>
  </defs>

  <rect width="1200" height="680" rx="28" fill="url(#bg)"/>
  <ellipse cx="600" cy="530" rx="450" ry="90" fill="url(#floorShadow)"/>

  <g transform="translate(290 118)">
    <ellipse cx="145" cy="396" rx="92" ry="20" fill="#9f7f2c" fill-opacity="0.35"/>
    <path d="M74 108C74 83.7 93.7 64 118 64H172C196.3 64 216 83.7 216 108V272C216 314.5 181.5 349 139 349H151C108.5 349 74 314.5 74 272V108Z" fill="url(#goldBody)"/>
    <ellipse cx="145" cy="108" rx="71" ry="44" fill="url(#goldCap)"/>
    <ellipse cx="145" cy="108" rx="32" ry="18" fill="#1e1f22"/>
    <ellipse cx="145" cy="108" rx="22" ry="12" fill="#0f1012"/>
    <rect x="108" y="349" width="74" height="36" rx="16" fill="#b78c23"/>
    <path d="M120 385H170V430C170 446.6 156.6 460 140 460C128.95 460 120 451.05 120 440V385Z" fill="#946f17"/>
    <rect x="131" y="410" width="18" height="50" rx="9" fill="#7f5f14"/>
  </g>

  <g transform="translate(695 118)">
    <ellipse cx="145" cy="396" rx="92" ry="20" fill="#78808a" fill-opacity="0.35"/>
    <path d="M74 108C74 83.7 93.7 64 118 64H172C196.3 64 216 83.7 216 108V272C216 314.5 181.5 349 139 349H151C108.5 349 74 314.5 74 272V108Z" fill="url(#grayBody)"/>
    <ellipse cx="145" cy="108" rx="71" ry="44" fill="url(#grayCap)"/>
    <ellipse cx="145" cy="108" rx="32" ry="18" fill="#1e1f22"/>
    <ellipse cx="145" cy="108" rx="22" ry="12" fill="#0f1012"/>
    <rect x="108" y="349" width="74" height="36" rx="16" fill="#8d949b"/>
    <path d="M120 385H170V430C170 446.6 156.6 460 140 460C128.95 460 120 451.05 120 440V385Z" fill="#7a8189"/>
    <rect x="131" y="410" width="18" height="50" rx="9" fill="#6f7680"/>
  </g>

  <text x="435" y="635" text-anchor="middle" font-size="38" font-family="Pretendard, Apple SD Gothic Neo, Noto Sans KR, sans-serif" fill="#865f09" font-weight="700">한다 (금색)</text>
  <text x="840" y="635" text-anchor="middle" font-size="38" font-family="Pretendard, Apple SD Gothic Neo, Noto Sans KR, sans-serif" fill="#4f5966" font-weight="700">안한다 (회색)</text>
</svg>
